<?xml version="1.0" encoding="utf-8"?>
<?xml-stylesheet type="text/css" href="../style.css"?>
<svg xmlns="http://www.w3.org/2000/svg" viewBox="0 0 1289.29 2800.25">
  <defs>
    <style></style>
  </defs>
  <g id="Layer_11" data-name="Layer 11"><rect class="cls-1" x="120.62" y="0.13" width="1080" height="2800"/></g>
  <g id="intro">
    <text class="cls-2" transform="translate(461.68 106.31) rotate(-5.99)">F</text>
    <text class="cls-2" transform="matrix(1, -0.07, 0.07, 1, 501.68, 102.08)">A</text>
    <text class="cls-2" transform="translate(545.25 99.04) rotate(-2.31)">C</text>
    <text class="cls-2" transform="translate(582.79 97.52) rotate(-0.78)">E</text>
    <text class="cls-2" transform="matrix(1, 0.01, -0.01, 1, 620.65, 96.99)"></text>
    <text class="cls-2" transform="translate(660.92 97.38) rotate(2.44)">M</text>
    <text class="cls-2" transform="matrix(1, 0.07, -0.07, 1, 716.89, 99.85)">A</text>
    <text class="cls-2" transform="translate(760.54 103.01) rotate(5.39)">S</text>
    <text class="cls-2" transform="translate(798.8 106.59) rotate(6.63)">K</text><path class="cls-3" d="M292.26,212.35l-1.32,247.77q230,34.68,459-.43l-1.38-247.34C593.14,190.6,440.93,189.87,292.26,212.35Z" transform="translate(121.62 -1.88)"/><polygon class="cls-4" points="412.69 340.3 412.69 364.66 872.98 366.76 872.98 340.3 412.69 340.3"/><polygon class="cls-4" points="409.83 378.9 409.83 403.26 870.12 405.36 870.12 378.9 409.83 378.9"/><polygon class="cls-4" points="411.25 417.49 411.25 441.85 871.55 443.95 871.55 417.49 411.25 417.49"/><polygon class="cls-4" points="409.87 263.11 409.87 287.47 870.17 289.57 870.17 263.11 409.87 263.11"/><polygon class="cls-4" points="394.3 224.51 394.3 248.87 854.6 250.98 854.6 224.51 394.3 224.51"/><polygon class="cls-4" points="412.45 301.82 412.45 326.18 872.74 328.28 872.74 301.82 412.45 301.82"/><path
      class="cls-5"
      d="M292.26,212.35c-6.25,1.75-9.42,6.09-8.55,13.8-18.28.4-35.73,4.43-49.85,23-2.06,2.71-4.12,5.41-6.23,8.09-11.92,15.16-22,36.29-22.29,65.27-.05,4.23-.1,8.46-.22,12.69a134.74,134.74,0,0,0,12.19,60c.86,1.94,1.65,3.92,2.44,5.89,9.31,23.25,27,34.37,46.86,42.45l16.44,2.76,1.32,7.6c.95,3.59,3,5.79,6.57,6.21Z"
      transform="translate(121.62 -1.88)"/><path class="cls-6" d="M283.05,235.81V436.57c-22.91,1.55-42.7-9.36-57.23-41.33-19-43-22.39-87.18,9.21-133.89C248.39,244.19,264.21,235,283.05,235.81Z" transform="translate(121.62 -1.88)"/><path
      class="cls-5"
      d="M747.37,460.67c6.24-1.82,9.36-6.19,8.42-13.9,18.27-.59,35.68-4.8,49.61-23.53,2-2.73,4.07-5.46,6.14-8.15,11.77-15.31,21.62-36.55,21.64-65.56,0-4.24,0-8.48.09-12.71a135,135,0,0,0-12.79-59.94c-.89-1.93-1.7-3.9-2.51-5.87-9.54-23.18-27.37-34.13-47.28-42l-16.47-2.6-1.39-7.58c-1-3.59-3.1-5.77-6.65-6.15Z"
      transform="translate(121.62 -1.88)"/><path class="cls-6" d="M756.35,437.09l-2-200.94c22.89-1.78,42.79,8.93,57.64,40.79,19.48,42.86,23.27,87-7.85,134.11C790.92,428.35,775.2,437.67,756.35,437.09Z" transform="translate(121.62 -1.88)"/></g>
  <g id="wrong"><circle id="wrong_circle" class="cls-7" cx="938.66" cy="2260.56" r="68.5"/><polygon class="cls-6" points="921.92 2232.66 966.57 2279.34 956.42 2289.49 911.77 2242.8 921.92 2232.66"/><polygon class="cls-6" points="911.22 2278.45 956.44 2232.31 966.91 2242.13 921.69 2288.26 911.22 2278.45"/><path class="cls-6" d="M777.65,2536.53c-11-10.29-14.72-20.06-15.78-29.65l-1.27,1.71c1.75,11.3,7.76,20.35,15.71,28.38Z" transform="translate(121.62 -1.88)"/><path class="cls-6" d="M866.3,2537.26c10.06-12.1,11.78-25.77,11.42-31.66l1.65,1.52c.17,11.45-4.58,21.29-11.58,30.39Z" transform="translate(121.62 -1.88)"/><path
    class="cls-8"
    d="M876.39,2511.37a58.42,58.42,0,0,1-4.46,18l-57.08,26.22-41.66-20h0a52.24,52.24,0,0,0-5.05-9.91c-1.92-2.85-3.06-7.08-3.75-12.21A5.2,5.2,0,0,0,760,2509c-9.52-1.38-16.42-7.13-19.55-19.16a17.29,17.29,0,0,1,2.29-14.28c4.39-6.23,11.59-7,20.69-4.21a.42.42,0,0,0,.55-.39l1.53-65,108-7.71,7.71,50.91-4.28,20.69a1,1,0,0,0,1.26,1.09c16.18-5.68,22.76-.14,18.06,18.55a29.22,29.22,0,0,1-2.11,6,21.35,21.35,0,0,1-14.24,11.68A4.75,4.75,0,0,0,876.39,2511.37Z"
    transform="translate(121.62 -1.88)"/><path class="cls-6" d="M763.94,2471.52c6.8,14.45,11.54,32.36,15.42,51.68h-2.17c-2.86-18.62-7.44-36.12-15-51.68Z" transform="translate(121.62 -1.88)"/><path class="cls-6" d="M877.64,2470.89l1.05.68a200.92,200.92,0,0,0-11.9,56.84l-1.52.14A166.6,166.6,0,0,1,877.64,2470.89Z" transform="translate(121.62 -1.88)"/><path
    class="cls-9"
    d="M838,2369.7c-42.47-6.63-79.76-1.32-98.74,46.28.71-.38,1.42-.72,2.14-1,5.21-2.12,12.1,1.48,11.67,7.08-1.46,19.28-2.48,34.62.08,49.48a14.21,14.21,0,0,1,10.8,1.54c2.32-24.11,5.67-44.58,13.88-47.82l1.54,10.8L810,2413.78a1.24,1.24,0,0,1,1.89,1.43l-3.18,8.48,40.11-18.51c9.31,1.15,15.59,5.13,20.06,10.8,4.76,2.34,6.69,14.29,7.71,29.31v27.77a20.14,20.14,0,0,1,13.89-3.08c2.43-16.93,2.11-34.86,0-53.45l9.25,2.54-15.42-13.89,3.08-7.71a39.24,39.24,0,0,0-5.81-27.77l-5,13.88c-1.69-7.49-5.19-14-12.34-18.51l1.54,10.8c-11.12-8.88-22.35-16.07-33.94-17Z"
    transform="translate(121.62 -1.88)"/><path class="cls-10" d="M696.82,2682.89l38.57,6.17c-7.85,26.73-12.08,54.05-13.88,81.77H685.57A740.73,740.73,0,0,1,696.82,2682.89Z" transform="translate(121.62 -1.88)"/><path class="cls-10" d="M905.1,2690.6c5.49,23.07,9,50,11.47,78.68h38.82c-2.21-32.76-5.52-63.3-11.72-87.94Z" transform="translate(121.62 -1.88)"/><path class="cls-8" d="M793.25,2552.52c-.75,11.85-3.46,21.85-9.26,28.88l9.26,12,26.23,7.47,20-3.61,18.52-15.43a8,8,0,0,1-6.17-3.08c-4.36-7.3-6.32-15.63-3.09-26.23Z" transform="translate(121.62 -1.88)"/><path
    class="cls-11"
    d="M791.49,2586.77A32.71,32.71,0,0,0,807,2597a43.16,43.16,0,0,0,28.32-.4,38.92,38.92,0,0,0,17.76-13.13,8,8,0,0,1,7.8-3l42.25,7.66a20.13,20.13,0,0,1,13.22,8.6c14.93,22.5,23.22,54.35,30.41,87.73-14.11,7.65-29.24,11.78-46.28,9.26v78.68H743.41l-4.93-78.68c-19.35-1.1-37.11-3.42-46.28-12.35,6.19-32.62,16.75-62.89,35.82-88.59a16.82,16.82,0,0,1,10.91-6.55l34.78-5.44a25.37,25.37,0,0,1,7.78,0A16.44,16.44,0,0,1,791.49,2586.77Z"
    transform="translate(121.62 -1.88)"/><ellipse class="cls-12" cx="970.41" cy="2485.07" rx="6.17" ry="8.49"/><ellipse class="cls-12" cx="911.78" cy="2483.53" rx="6.17" ry="8.49"/><path
    class="cls-13"
    d="M779.36,2521.66c28.47,27.18,56.73,22.87,84.86,1.54a15.84,15.84,0,0,0,10.8,6.18c-8.07,16.47-21.65,26.3-39.84,30.55a60.88,60.88,0,0,1-21.57,1c-23.26-3-39.61-12.69-46.59-31.52C771.7,2528.77,775.71,2525.84,779.36,2521.66Z"
    transform="translate(121.62 -1.88)"/><path class="cls-14" d="M807.14,2535.55c10.07-5.06,20.15-6,30.22,0" transform="translate(121.62 -1.88)"/><path class="cls-14" d="M817.16,2494.66c-1.69,7.07-2.16,13.72-.48,19.65a4,4,0,0,0,2.47,2.69,7.76,7.76,0,0,0,5.73-.74" transform="translate(121.62 -1.88)"/></g>
  <g id="correct"><circle id="correct_circle" cx="367.81" cy="2261.39" r="70.54"/><polygon class="cls-6" points="332.39 2258.03 351.73 2275.93 402.57 2220.79 416.18 2232.97 353.88 2302.43 319.5 2273.07 332.39 2258.03"/><path
    class="cls-8"
    d="M304.88,2510.94c13.49-5.82,22.47-14.74,18.57-32.48-1.7-9.74-8.57-11.28-20.11-5.42l3.09-51.82L281.68,2398l-37.13,7.73-17,6.19-12.87,3.87-11.88,5.41L192,2433.6,190.41,2473c-13-4.92-20.68-2.07-22.49,9.28-.33,19.68,9.12,25.4,22.49,25.53Z"
    transform="translate(121.62 -1.88)"/><path class="cls-6" d="M300.86,2507.11c-4-13.78-2.66-27,3.15-37.54l.53.23c-4.73,10.39-6,23.37-2.68,37.75Z" transform="translate(121.62 -1.88)"/><path class="cls-6" d="M188.23,2467.57c7.62,12.17,9.91,25.3,7.16,37l-.57-.08c1.73-11.28-.61-24.11-7.68-37.06Z" transform="translate(121.62 -1.88)"/><path
    class="cls-9"
    d="M264.66,2369.4c-42.58-6.64-80-1.32-99,46.41a19.82,19.82,0,0,1,2.14-1c5.22-2.13,12.13,1.47,11.7,7.09-1.46,19.33-2.48,34.71.08,49.61a14.29,14.29,0,0,1,10.83,1.55c2.33-24.18,5.69-44.7,13.92-47.95l1.55,10.83,30.69-22.32a1.24,1.24,0,0,1,1.89,1.44l-3.19,8.5L275.49,2405c9.34,1.15,15.63,5.14,20.11,10.83,4.78,2.34,6.71,14.33,7.74,29.39V2473a20.16,20.16,0,0,1,13.92-3.09c2.44-17,2.12-35,0-53.59l9.28,2.54L311.07,2405l3.1-7.74a39.35,39.35,0,0,0-5.83-27.84l-5,13.92c-1.7-7.51-5.21-14-12.38-18.56l1.55,10.83c-11.16-8.9-22.41-16.11-34-17Z"
    transform="translate(121.62 -1.88)"/><path class="cls-10" d="M124.66,2680.33l38.68,6.19c-7.88,26.8-12.12,54.2-13.93,82h-36A744.78,744.78,0,0,1,124.66,2680.33Z" transform="translate(121.62 -1.88)"/><path class="cls-10" d="M333.5,2688.06c5.5,23.13,9,50.1,11.5,78.9h38.92c-2.21-32.85-5.53-63.47-11.75-88.18Z" transform="translate(121.62 -1.88)"/><path class="cls-8" d="M221.35,2549.61c-.76,11.89-3.47,21.91-9.28,29l9.28,12,26.3,7.49,20.11-3.62L286.32,2579a8,8,0,0,1-6.19-3.1c-4.37-7.31-6.33-15.67-3.09-26.3Z" transform="translate(121.62 -1.88)"/><path
    class="cls-11"
    d="M219.59,2584a32.75,32.75,0,0,0,15.55,10.25,43.15,43.15,0,0,0,28.4-.4,39,39,0,0,0,17.8-13.16,8,8,0,0,1,7.82-3l42.36,7.68a20.19,20.19,0,0,1,13.26,8.62c15,22.56,23.28,54.5,30.49,88-14.15,7.67-29.31,11.81-46.41,9.28v78.89H171.37l-4.94-78.89c-19.4-1.1-37.21-3.43-46.41-12.38,6.22-32.7,16.8-63.06,35.92-88.82a16.86,16.86,0,0,1,10.94-6.58l34.87-5.45a25.5,25.5,0,0,1,7.8,0A16.52,16.52,0,0,1,219.59,2584Z"
    transform="translate(121.62 -1.88)"/><ellipse class="cls-12" cx="398.65" cy="2482" rx="6.19" ry="8.51"/><ellipse class="cls-12" cx="339.87" cy="2480.45" rx="6.19" ry="8.51"/><path
    class="cls-15"
    d="M192,2500.11a126.46,126.46,0,0,0,1.59,29.39,47.43,47.43,0,0,0,11.14,17c3.31,3.07,7.76,5.56,14.14,7.07a55.49,55.49,0,0,1,5.8,1.64c6,2.14,13.3,3,21.07,3.27a33,33,0,0,0,3.85,0,133.15,133.15,0,0,0,18.56-2.74,44.33,44.33,0,0,0,13.06-4.87,40.5,40.5,0,0,0,7.05-5.16,20.53,20.53,0,0,0,1.45-1.5,24.39,24.39,0,0,0,5.81-6c1-1.52,2.16-3,3.29-4.43a36.3,36.3,0,0,0,2.79-4.08h0a24.32,24.32,0,0,0,3.32-12.26v-17.27C267,2492.6,229.32,2491.12,192,2500.11Z"
    transform="translate(121.62 -1.88)"/></g>
  <g id="houses"><rect class="cls-16" x="322.63" y="1478.25" width="19" height="41"/><circle class="cls-16" cx="340.12" cy="1477.56" r="9.99"/><path class="cls-17" d="M31,1526.18v15a5.4,5.4,0,0,0,5.4,5.4H222.7a6.63,6.63,0,0,0,6.63-6.63V1527a5.87,5.87,0,0,0-5.87-5.87H36.07A5.07,5.07,0,0,0,31,1526.18Z" transform="translate(121.62 -1.88)"/><circle class="cls-18" cx="316.09" cy="1473.71" r="14.49"/><circle class="cls-19" cx="340.13" cy="1445.75" r="22"/><polyline class="cls-20" points="260.63 1355.25 260.63 1313.92 280.12 1313.92 280.12 1368.27"/><polygon class="cls-21" points="287.88 1389.63 287.88 1519.25 166.63 1519.25 166.63 1386.25 287.88 1389.63"/><polyline class="cls-21" points="144.63 1393.25 229.63 1315.25 310.25 1393.25"/><circle class="cls-22" cx="227.63" cy="1386.25" r="13"/><path class="cls-23" d="M111.51,1519.44v-64a5.7,5.7,0,0,1,5.7-5.7h25.62a5.67,5.67,0,0,1,5.67,5.67v64" transform="translate(121.62 -1.88)"/><path class="cls-22" d="M60,1432.12a6.89,6.89,0,0,1,5-5H78.67c3,.37,4.79,2.06,5.25,5.25v38c.11,3.2-1.55,5.09-4.91,5.73H64.43a4.5,4.5,0,0,1-4.42-4.18Z" transform="translate(121.62 -1.88)"/><circle class="cls-18" cx="265.13" cy="1175.75" r="19"/><circle class="cls-18" cx="273.63" cy="1229.25" r="8.5"/><circle class="cls-18" cx="289.13" cy="1290.75" r="12"/><circle class="cls-18" cx="310.63" cy="1245.25" r="11.5"/><circle class="cls-18" cx="233.13" cy="1244.75" r="15"/><line class="cls-24" x1="505.12" y1="1140.13" x2="505.12" y2="1567.13"/><line class="cls-24" x1="753.12" y1="1139.13" x2="753.12" y2="1566.13"/></g>
  <g id="buses"><path class="cls-5" d="M1056.66,1369.68a5,5,0,0,0,6,0v-20.4a2.91,2.91,0,0,0-2.25-2.4l-19.75-6.07,2.27,7.59,13.68,3.8Z" transform="translate(121.62 -1.88)"/><path class="cls-25" d="M666.92,1328.65c-6.46,2.16-11,6.27-12.92,12.92v113.88c.82,5.76,4.71,9.62,10.64,12.23l387.46.76c2.05.09,3.41-.57,3.8-2.28v-58.53l-13.68-66.82c-4-7.47-10.74-12.1-21.81-12.16Z" transform="translate(121.62 -1.88)"/><polygon class="cls-9" points="800.69 1332.85 800.69 1383.04 875.9 1383 875.9 1332.85 800.69 1332.85"/><polygon class="cls-9" points="884.55 1333.66 884.55 1383.85 959.77 1383.81 959.77 1333.66 884.55 1333.66"/><polygon class="cls-9" points="967.36 1332.9 967.36 1383.09 1042.58 1383.05 1042.58 1332.9 967.36 1332.9"/><polygon class="cls-9" points="1051.4 1332.9 1051.4 1383.09 1119.31 1383.05 1119.31 1332.9 1051.4 1332.9"/><path class="cls-9" d="M1005.14,1334v31.66l28,.2-6.08-25.07a9.3,9.3,0,0,0-3.74-5.78,5.6,5.6,0,0,0-3.27-1Z" transform="translate(121.62 -1.88)"/><polygon class="cls-9" points="1126.76 1370.59 1126.76 1382.33 1157.82 1382.33 1155.99 1370.59 1126.76 1370.59"/><rect class="cls-9" x="890.34" y="1383.38" width="6.19" height="83.19"/><rect class="cls-9" x="928.37" y="1383.38" width="6.15" height="83.19"/><polygon class="cls-9" points="1122.96 1421.78 1122.96 1428.4 931.36 1427.82 931.36 1421.78 1122.96 1421.78"/><rect class="cls-9" x="1118.26" y="1382.24" width="9.12" height="84.33"/><rect class="cls-9" x="1151.66" y="1382.24" width="6.16" height="83.89"/><rect class="cls-9" x="985.75" y="1426.64" width="6.34" height="39.93"/><circle class="cls-26" cx="835.25" cy="1463.15" r="28.49"/><circle class="cls-26" cx="1072.29" cy="1462.39" r="28.49"/><circle class="cls-27" cx="835.25" cy="1463.15" r="12.54"/><circle class="cls-27" cx="1072.29" cy="1463.15" r="12.54"/></g>
  <g id="corona"><circle class="cls-28" cx="399.59" cy="770.36" r="77.07"/><line class="cls-28" x1="387.13" y1="885.78" x2="389.21" y2="846.35"/><line class="cls-28" x1="319.98" y1="828.68" x2="336.05" y2="814.21"/><line class="cls-28" x1="262.74" y1="752.96" x2="323.8" y2="756.17"/><line class="cls-28" x1="339.87" y1="693.24" x2="353.12" y2="707.97"/><line class="cls-28" x1="406.21" y1="644.43" x2="403.67" y2="692.77"/><line class="cls-28" x1="491.78" y1="691.03" x2="458.3" y2="721.15"/><line class="cls-28" x1="500.01" y1="776.92" x2="475.91" y2="774.38"/><line class="cls-28" x1="476.58" y1="858.6" x2="451.27" y2="830.48"/><circle class="cls-28" cx="262.74" cy="752.96" r="35.03"/><circle class="cls-28" cx="405.54" cy="645.03" r="25.48"/><circle class="cls-28" cx="491.78" cy="691.03" r="24.84"/><circle class="cls-28" cx="500.01" cy="776.92" r="15.29"/><circle class="cls-28" cx="475.91" cy="859.21" r="22.93"/><circle class="cls-28" cx="387.13" cy="885.78" r="27.39"/><circle class="cls-28" cx="319.98" cy="828.68" r="15.92"/><circle class="cls-28" cx="341.07" cy="694.58" r="7.01"/><circle class="cls-28" cx="389.68" cy="801.09" r="23.57"/><circle class="cls-28" cx="388.87" cy="731.53" r="7.01"/><circle class="cls-28" cx="436.88" cy="764.67" r="15.92"/>
    <text class="cls-29" transform="translate(313.9 1947.76)">SOCIA<tspan class="cls-30" x="202.69" y="0">L</tspan>
      <tspan x="240.63" y="0" xml:space="preserve">
        DIS</tspan>
      <tspan class="cls-31" x="365.09" y="0">T</tspan>
      <tspan x="399.44" y="0">ANCING</tspan>
    </text>
    <text class="cls-32" transform="translate(355.49 1984.65)">KEE<tspan class="cls-33" x="59.63" y="0">P</tspan>
      <tspan class="cls-34" x="78.45" y="0" xml:space="preserve">
        A</tspan>
      <tspan class="cls-35" x="105.29" y="0" xml:space="preserve">
        DIS</tspan>
      <tspan class="cls-36" x="161.69" y="0">T</tspan>
      <tspan x="177.26" y="0">ANCE OF 1 METER</tspan>
      <tspan class="cls-37" x="441.5" y="0"></tspan>
      <tspan class="cls-38" x="448.48" y="0">A</tspan>
      <tspan class="cls-39" x="469.42" y="0">LW</tspan>
      <tspan class="cls-40" x="511.31" y="0">A</tspan>
      <tspan x="529.59" y="0">YS</tspan>
    </text>
  </g>
  <g id="Layer_12" data-name="Layer 12">
    <text class="cls-41" transform="translate(424.9 1086.4)">S<tspan class="cls-31" x="49.36" y="0">T</tspan>
      <tspan class="cls-42" x="89.07" y="0">A</tspan>
      <tspan class="cls-30" x="135.71" y="0">Y</tspan>
      <tspan x="183.74" y="0" xml:space="preserve">
        HOME</tspan>
    </text>
    <text class="cls-43" transform="translate(439.5 1122.29)">A<tspan class="cls-44" x="14.9" y="0">VOID GOING OUT UNNECESARI</tspan>
      <tspan class="cls-45" x="367.6" y="0">L</tspan>
      <tspan class="cls-46" x="379.53" y="0">Y</tspan>
    </text>
  </g>
  <g id="between_house_and_bus" data-name="between house and bus"><circle class="cls-17" cx="625.21" cy="1385.83" r="35.24"/><line class="cls-22" x1="619.52" y1="1438.61" x2="620.46" y2="1420.58"/><line class="cls-22" x1="588.81" y1="1412.49" x2="596.16" y2="1405.88"/><line class="cls-22" x1="562.63" y1="1377.87" x2="590.55" y2="1379.34"/><line class="cls-22" x1="597.9" y1="1350.56" x2="603.96" y2="1357.3"/><line class="cls-22" x1="628.24" y1="1328.24" x2="627.08" y2="1350.35"/><line class="cls-22" x1="667.37" y1="1349.55" x2="652.06" y2="1363.33"/><line class="cls-22" x1="671.13" y1="1388.83" x2="660.11" y2="1387.67"/><line class="cls-22" x1="660.42" y1="1426.18" x2="648.84" y2="1413.32"/><circle class="cls-17" cx="562.63" cy="1377.87" r="16.02"/><circle class="cls-17" cx="627.93" cy="1328.52" r="11.65"/><circle class="cls-17" cx="667.37" cy="1349.55" r="11.36"/><circle class="cls-17" cx="671.13" cy="1388.83" r="6.99"/><circle class="cls-17" cx="660.11" cy="1426.45" r="10.48"/><circle class="cls-17" cx="619.52" cy="1438.61" r="12.52"/><circle class="cls-17" cx="588.81" cy="1412.49" r="7.28"/><circle class="cls-17" cx="598.45" cy="1351.17" r="3.2"/><circle class="cls-17" cx="620.68" cy="1399.88" r="10.78"/><circle class="cls-17" cx="620.31" cy="1368.07" r="3.2"/><circle class="cls-17" cx="642.26" cy="1383.23" r="7.28"/></g>
  <g id="two_persons" data-name="two persons"><path class="cls-47" d="M169.57,1674.57l3.91,358.53a27,27,0,0,1-9.7,21.33,27.34,27.34,0,0,1-12.12,5.57,32.6,32.6,0,0,1-6.39.57H119.52" transform="translate(121.62 -1.88)"/><line class="cls-47" x1="130.72" y1="2058.7" x2="224.62" y2="2058.7"/><circle class="cls-47" cx="212.68" cy="1760.2" r="35"/><path class="cls-47" d="M54.07,1835.17v197.77c0,12.79,26.33,12.79,26.33,0v-98.88c0-9.47,22.85-9.47,22.85,0v98.88c0,15.6,27.41,15.6,27.41,0V1838.43" transform="translate(121.62 -1.88)"/><path
    class="cls-47"
    d="M134.07,1938.07q7.63,1,12.59-2.77a14.4,14.4,0,0,0,5.41-11.49V1837l-.09-.26a24.29,24.29,0,0,0-23.2-16.68H54.93a21,21,0,0,0-10.59,2.76c-.49.29-1,.59-1.45.91a24.67,24.67,0,0,0-10.73,20.59l-.09,81a13.57,13.57,0,0,0,1,5.24c2.63,6.23,9.31,8.18,18.46,7.52"
    transform="translate(121.62 -1.88)"/><line class="cls-47" x1="1190.18" y1="2058.25" x2="1068.62" y2="2058.25"/><ellipse class="cls-47" cx="1070.09" cy="1759.75" rx="36.76" ry="35"/><path class="cls-47" d="M995.34,1834.73V2032.5c0,12.79-27.67,12.79-27.67,0v-98.89c0-9.46-24-9.46-24,0v98.89c0,15.6-28.8,15.6-28.8,0V1838" transform="translate(121.62 -1.88)"/><path
    class="cls-47"
    d="M911.31,1937.63q-8,1-13.23-2.77a14.18,14.18,0,0,1-5.68-11.49v-86.8l.09-.26c3.38-10,13.32-16.68,24.37-16.68h77.57a22.89,22.89,0,0,1,11.12,2.76c.52.29,1,.59,1.53.91a24.34,24.34,0,0,1,11.27,20.58l.09,81a12.91,12.91,0,0,1-1,5.24c-2.76,6.22-9.78,8.18-19.39,7.52"
    transform="translate(121.62 -1.88)"/><path class="cls-47" d="M862.93,1675.9l3.51,358.55c.08,8.2,4.84,16.06,13.49,21a43,43,0,0,0,16.34,5.17,56.89,56.89,0,0,0,8.57.36l34.42-.84" transform="translate(121.62 -1.88)"/></g>
  <g id="Layer_10" data-name="Layer 10"><circle class="cls-48" cx="258.61" cy="1422.04" r="115.9"/><line class="cls-48" x1="239.88" y1="1595.63" x2="243.01" y2="1536.32"/><line class="cls-48" x1="138.9" y1="1509.74" x2="163.06" y2="1487.99"/><line class="cls-48" x1="52.81" y1="1395.87" x2="144.63" y2="1400.7"/><line class="cls-48" x1="168.8" y1="1306.05" x2="188.74" y2="1328.2"/><line class="cls-48" x1="268.58" y1="1232.65" x2="264.75" y2="1305.35"/><line class="cls-48" x1="397.26" y1="1302.73" x2="346.91" y2="1348.04"/><line class="cls-48" x1="409.64" y1="1431.91" x2="373.4" y2="1428.08"/><line class="cls-48" x1="374.4" y1="1554.75" x2="336.34" y2="1512.46"/><circle class="cls-48" cx="52.81" cy="1395.87" r="52.68"/><circle class="cls-48" cx="267.57" cy="1233.56" r="38.31"/><circle class="cls-48" cx="397.26" cy="1302.73" r="37.36"/><circle class="cls-48" cx="409.64" cy="1431.91" r="22.99"/><circle class="cls-48" cx="373.4" cy="1555.66" r="34.48"/><circle class="cls-48" cx="239.88" cy="1595.63" r="41.19"/><circle class="cls-48" cx="138.9" cy="1509.74" r="23.95"/><circle class="cls-48" cx="170.61" cy="1308.07" r="10.54"/><circle class="cls-48" cx="243.71" cy="1468.26" r="35.44"/><circle class="cls-48" cx="242.5" cy="1363.65" r="10.54"/><circle class="cls-48" cx="314.69" cy="1413.49" r="23.95"/><circle class="cls-49" cx="1076.89" cy="934.09" r="139.79"/><line class="cls-49" x1="1054.3" y1="1143.45" x2="1058.07" y2="1071.92"/><line class="cls-49" x1="932.5" y1="1039.86" x2="961.64" y2="1013.63"/><line class="cls-49" x1="828.67" y1="902.51" x2="939.42" y2="908.34"/><line class="cls-49" x1="968.56" y1="794.19" x2="992.61" y2="820.9"/><line class="cls-49" x1="1088.91" y1="705.66" x2="1084.3" y2="793.34"/><line class="cls-49" x1="1244.11" y1="790.18" x2="1183.39" y2="844.83"/><line class="cls-49" x1="1259.05" y1="945.99" x2="1215.33" y2="941.37"/><line class="cls-49" x1="1216.54" y1="1094.14" x2="1170.64" y2="1043.14"/><circle class="cls-49" cx="828.67" cy="902.51" r="63.54"/><circle class="cls-49" cx="1087.7" cy="706.75" r="46.21"/><circle class="cls-49" cx="1244.11" cy="790.18" r="45.06"/><circle class="cls-49" cx="1259.05" cy="945.99" r="27.73"/><circle class="cls-49" cx="1215.33" cy="1095.24" r="41.59"/><circle class="cls-49" cx="1054.3" cy="1143.45" r="49.68"/><circle class="cls-49" cx="932.5" cy="1039.86" r="28.88"/><circle class="cls-49" cx="970.75" cy="796.62" r="12.71"/><circle class="cls-49" cx="1058.92" cy="989.83" r="42.75"/><circle class="cls-49" cx="1057.46" cy="863.65" r="12.71"/><circle class="cls-49" cx="1144.53" cy="923.76" r="28.88"/><circle class="cls-50" cx="622.08" cy="1946.24" r="101.76"/><line class="cls-50" x1="605.64" y1="2098.65" x2="608.38" y2="2046.58"/><line class="cls-50" x1="516.97" y1="2023.24" x2="538.19" y2="2004.15"/><line class="cls-50" x1="441.38" y1="1923.26" x2="522.01" y2="1927.5"/><line class="cls-50" x1="543.22" y1="1844.4" x2="560.73" y2="1863.85"/><line class="cls-50" x1="630.83" y1="1779.95" x2="627.47" y2="1843.78"/><line class="cls-50" x1="743.82" y1="1841.48" x2="699.61" y2="1881.26"/><line class="cls-50" x1="754.69" y1="1954.91" x2="722.86" y2="1951.55"/><line class="cls-50" x1="723.75" y1="2062.76" x2="690.33" y2="2025.63"/><circle class="cls-50" cx="441.38" cy="1923.26" r="46.26"/><circle class="cls-50" cx="629.95" cy="1780.75" r="33.64"/><circle class="cls-50" cx="743.82" cy="1841.48" r="32.8"/><circle class="cls-50" cx="754.69" cy="1954.91" r="20.18"/><circle class="cls-50" cx="722.86" cy="2063.56" r="30.28"/><circle class="cls-50" cx="605.64" cy="2098.65" r="36.16"/><circle class="cls-50" cx="516.97" cy="2023.24" r="21.03"/><circle class="cls-50" cx="544.82" cy="1846.17" r="9.25"/><circle class="cls-50" cx="609" cy="1986.82" r="31.12"/><circle class="cls-50" cx="607.94" cy="1894.97" r="9.25"/><circle class="cls-50" cx="671.32" cy="1938.73" r="21.03"/><circle class="cls-51" cx="930.66" cy="318.76" r="133.49"/><line class="cls-51" x1="909.09" y1="518.69" x2="912.69" y2="450.38"/><line class="cls-51" x1="792.78" y1="419.77" x2="820.61" y2="394.72"/><line class="cls-51" x1="693.63" y1="288.61" x2="799.39" y2="294.17"/><line class="cls-51" x1="827.22" y1="185.17" x2="850.18" y2="210.68"/><line class="cls-51" x1="942.14" y1="100.63" x2="937.74" y2="184.35"/><line class="cls-51" x1="1090.35" y1="181.34" x2="1032.37" y2="233.52"/><line class="cls-51" x1="1104.61" y1="330.12" x2="1062.87" y2="325.72"/><line class="cls-51" x1="1064.03" y1="471.6" x2="1020.19" y2="422.9"/><circle class="cls-51" cx="693.63" cy="288.61" r="60.68"/><circle class="cls-51" cx="940.99" cy="101.67" r="44.13"/><circle class="cls-51" cx="1092.35" cy="181.34" r="43.03"/><circle class="cls-51" cx="1104.61" cy="330.12" r="26.48"/><circle class="cls-51" cx="1062.87" cy="472.65" r="39.72"/><circle class="cls-51" cx="909.09" cy="518.69" r="47.44"/><circle class="cls-51" cx="792.78" cy="419.77" r="27.58"/><circle class="cls-51" cx="829.31" cy="187.48" r="12.14"/><circle class="cls-51" cx="913.5" cy="371.99" r="40.82"/><circle class="cls-51" cx="912.11" cy="251.5" r="12.14"/><circle class="cls-51" cx="995.26" cy="308.9" r="27.58"/><circle class="cls-52" cx="1046.19" cy="1603.01" r="106.74"/><line class="cls-52" x1="1028.94" y1="1762.88" x2="1031.82" y2="1708.26"/><line class="cls-52" x1="935.93" y1="1683.78" x2="958.19" y2="1663.75"/><line class="cls-52" x1="856.65" y1="1578.9" x2="941.22" y2="1583.35"/><line class="cls-52" x1="963.47" y1="1496.18" x2="981.84" y2="1516.58"/><line class="cls-52" x1="1055.37" y1="1428.58" x2="1051.85" y2="1495.53"/><line class="cls-52" x1="1173.89" y1="1493.12" x2="1127.52" y2="1534.85"/><line class="cls-52" x1="1185.29" y1="1612.1" x2="1151.91" y2="1608.57"/><line class="cls-52" x1="1152.84" y1="1725.23" x2="1117.78" y2="1686.28"/><circle class="cls-52" cx="856.65" cy="1578.9" r="48.52"/><circle class="cls-52" cx="1054.45" cy="1429.41" r="35.29"/><circle class="cls-52" cx="1173.89" cy="1493.12" r="34.41"/><circle class="cls-52" cx="1185.29" cy="1612.1" r="21.17"/><circle class="cls-52" cx="1151.91" cy="1726.07" r="31.76"/><circle class="cls-52" cx="1028.94" cy="1762.88" r="37.93"/><circle class="cls-52" cx="935.93" cy="1683.78" r="22.05"/><circle class="cls-52" cx="965.14" cy="1498.04" r="9.7"/><circle class="cls-52" cx="1032.47" cy="1645.57" r="32.64"/><circle class="cls-52" cx="1031.36" cy="1549.22" r="9.7"/><circle class="cls-52" cx="1097.85" cy="1595.13" r="22.05"/><circle class="cls-53" cx="860.93" cy="2529.18" r="82.23"/><line class="cls-53" x1="847.65" y1="2652.33" x2="849.86" y2="2610.25"/><line class="cls-53" x1="776" y1="2591.39" x2="793.14" y2="2575.96"/><line class="cls-53" x1="714.92" y1="2510.6" x2="780.07" y2="2514.03"/><line class="cls-53" x1="797.22" y1="2446.88" x2="811.36" y2="2462.6"/><line class="cls-53" x1="868.01" y1="2394.81" x2="865.29" y2="2446.38"/><line class="cls-53" x1="959.3" y1="2444.53" x2="923.58" y2="2476.67"/><line class="cls-53" x1="968.08" y1="2536.18" x2="942.37" y2="2533.46"/><line class="cls-53" x1="943.08" y1="2623.32" x2="916.08" y2="2593.32"/><circle class="cls-53" cx="714.92" cy="2510.6" r="37.38"/><circle class="cls-53" cx="867.29" cy="2395.45" r="27.18"/><circle class="cls-53" cx="959.3" cy="2444.53" r="26.5"/><circle class="cls-53" cx="968.08" cy="2536.18" r="16.31"/><circle class="cls-53" cx="942.37" cy="2623.97" r="24.46"/><circle class="cls-53" cx="847.65" cy="2652.33" r="29.22"/><circle class="cls-53" cx="776" cy="2591.39" r="16.99"/><circle class="cls-53" cx="798.5" cy="2448.31" r="7.48"/><circle class="cls-53" cx="850.36" cy="2561.96" r="25.14"/><circle class="cls-53" cx="849.5" cy="2487.74" r="7.48"/><circle class="cls-53" cx="900.72" cy="2523.1" r="16.99"/><circle class="cls-54" cx="381.93" cy="2355.18" r="82.23"/><line class="cls-54" x1="368.65" y1="2478.33" x2="370.86" y2="2436.25"/><line class="cls-54" x1="297" y1="2417.39" x2="314.14" y2="2401.96"/><line class="cls-54" x1="235.92" y1="2336.6" x2="301.07" y2="2340.03"/><line class="cls-54" x1="318.22" y1="2272.88" x2="332.36" y2="2288.6"/><line class="cls-54" x1="389.01" y1="2220.81" x2="386.29" y2="2272.38"/><line class="cls-54" x1="480.3" y1="2270.53" x2="444.58" y2="2302.67"/><line class="cls-54" x1="489.08" y1="2362.18" x2="463.37" y2="2359.46"/><line class="cls-54" x1="464.08" y1="2449.32" x2="437.08" y2="2419.32"/><circle class="cls-54" cx="235.92" cy="2336.6" r="37.38"/><circle class="cls-54" cx="388.29" cy="2221.45" r="27.18"/><circle class="cls-54" cx="480.3" cy="2270.53" r="26.5"/><circle class="cls-54" cx="489.08" cy="2362.18" r="16.31"/><circle class="cls-54" cx="463.37" cy="2449.97" r="24.46"/><circle class="cls-54" cx="368.65" cy="2478.33" r="29.22"/><circle class="cls-54" cx="297" cy="2417.39" r="16.99"/><circle class="cls-54" cx="319.5" cy="2274.31" r="7.48"/><circle class="cls-54" cx="371.36" cy="2387.96" r="25.14"/><circle class="cls-54" cx="370.5" cy="2313.74" r="7.48"/><circle class="cls-54" cx="421.72" cy="2349.1" r="16.99"/></g>
  <g id="_1st_person" data-name="1st person"><path
    class="cls-8"
    d="M861.73,735.73c14.95-6.45,24.9-16.34,20.58-36-1.88-10.8-9.5-12.5-22.3-6l3.43-57.45L836,610.53l-41.16,8.58L776,626l-14.27,4.28-13.17,6-12,13.72-1.71,43.73c-14.44-5.46-22.93-2.29-24.94,10.29-.37,21.82,10.11,28.17,24.94,28.3Z"
    transform="translate(121.62 -1.88)"/><path class="cls-6" d="M857.26,731.48c-4.47-15.28-3-30,3.5-41.62l.58.26c-5.24,11.52-6.61,25.91-3,41.86Z" transform="translate(121.62 -1.88)"/><path class="cls-6" d="M732.39,687.64c8.45,13.49,11,28.05,7.94,41l-.63-.09c1.91-12.51-.68-26.74-8.51-41.09Z" transform="translate(121.62 -1.88)"/><path
    class="cls-9"
    d="M817.13,578.8c-47.21-7.36-88.67-1.46-109.77,51.45.79-.42,1.58-.8,2.38-1.13,5.79-2.35,13.45,1.64,13,7.87-1.63,21.43-2.76,38.48.08,55a15.8,15.8,0,0,1,12,1.71c2.58-26.81,6.31-49.56,15.43-53.17l1.72,12,34-24.75a1.38,1.38,0,0,1,2.1,1.6l-3.54,9.43,44.6-20.58c10.35,1.27,17.33,5.7,22.29,12,5.3,2.6,7.44,15.89,8.58,32.59v30.87a22.36,22.36,0,0,1,15.44-3.43c2.7-18.81,2.34-38.75,0-59.41l10.29,2.81-17.15-15.43,3.43-8.58a43.63,43.63,0,0,0-6.46-30.87L860,594.24c-1.88-8.33-5.77-15.57-13.72-20.58l1.71,12c-12.36-9.87-24.84-17.85-37.73-18.86Z"
    transform="translate(121.62 -1.88)"/><path class="cls-10" d="M661.91,874.12,704.79,879a216.07,216.07,0,0,0-15.43,64h-40A418.75,418.75,0,0,1,661.91,874.12Z" transform="translate(121.62 -1.88)"/><path class="cls-10" d="M890.46,881.37c6.09,18,9.95,39.09,12.75,61.57h43.15c-2.46-25.64-6.14-49.54-13-68.82Z" transform="translate(121.62 -1.88)"/><path class="cls-8" d="M769.11,778.61c-.84,13.18-3.85,24.29-10.29,32.11l10.29,13.34,29.16,8.3,22.29-4,20.58-17.15a8.89,8.89,0,0,1-6.86-3.43c-4.84-8.11-7-17.38-3.43-29.16Z" transform="translate(121.62 -1.88)"/><path
    class="cls-11"
    d="M765.39,798.7c4.55,3.89,10.41,6.44,17.24,8a67,67,0,0,0,31.49-.32c8.46-2.21,14.85-5.76,19.74-10.27a11,11,0,0,1,8.67-2.37l47,6c6,.77,11.33,3.17,14.69,6.73C920.8,824.08,930,849,938,875.12c-15.68,6-32.5,9.23-51.45,7.25v61.57H711.94l-5.48-61.57c-21.51-.86-41.25-2.68-51.46-9.66,6.89-25.53,18.63-49.22,39.83-69.32A21,21,0,0,1,707,798.26L745.62,794a40.34,40.34,0,0,1,8.65,0A20.67,20.67,0,0,1,765.39,798.7Z"
    transform="translate(121.62 -1.88)"/><ellipse class="cls-12" cx="952.47" cy="703.84" rx="6.86" ry="9.43"/><ellipse class="cls-12" cx="887.29" cy="702.13" rx="6.86" ry="9.43"/><path
    class="cls-15"
    d="M736.53,723.73a140.43,140.43,0,0,0,1.76,32.58c2.73,7.55,7.17,13.54,12.34,18.87,3.68,3.41,8.62,6.17,15.68,7.84a59.76,59.76,0,0,1,6.44,1.82c6.67,2.37,14.74,3.28,23.35,3.63a40.75,40.75,0,0,0,4.28-.06,144.75,144.75,0,0,0,20.57-3,49.1,49.1,0,0,0,14.48-5.4,44.76,44.76,0,0,0,7.81-5.72,21.11,21.11,0,0,0,1.62-1.66,27,27,0,0,0,6.44-6.7c1.15-1.68,2.39-3.3,3.65-4.91a42.07,42.07,0,0,0,3.09-4.53h0a26.9,26.9,0,0,0,3.69-13.59V723.73C819.73,715.4,778,713.76,736.53,723.73Z"
    transform="translate(121.62 -1.88)"/></g>
</svg>
